<svg id="Layer_3" data-name="Layer 3" xmlns="http://www.w3.org/2000/svg" viewBox="0 0 1080 1080"><defs><style>.cls-1{fill:#fff;}</style></defs><path class="cls-1" d="M815.05,597.73l92.09,159.52H803.84l-92.1-159.52H582.61L674.7,757.25H572.91L480.82,597.73,431.7,512.65l-8-13.88-8,13.88-49.11,85.08-92.1,159.52H172.67l92.1-159.52,49.12-85.08,58.76-101.78h.29l-.15-.26,50.72-87.86h.35l50.71,87.86-.13.26h.29l58.76,101.78H768.32a50.89,50.89,0,1,0,0-101.78H555.25l-40.42-70-10.45-18.12H769.84a137.5,137.5,0,0,1,41.52,268.58Z"/></svg>